<svg xmlns="http://www.w3.org/2000/svg" xmlns:xlink="http://www.w3.org/1999/xlink" id="Layer_1" x="0" y="0" version="1.1" viewBox="0 0 283.5 170.1" xml:space="preserve" style="enable-background:new 0 0 283.5 170.1"><style type="text/css">.st0{opacity:.85}.st0,.st1{fill:#74bf4b}.st2{fill:#4d4d4f}</style><g><path d="M39.7,119.1h34c18.2,0,33.1-14.3,34-32.3h-68L39.7,119.1L39.7,119.1z" class="st0"/><path d="M73.7,51h-34v32.3h68C106.8,65.3,91.9,51,73.7,51" class="st1"/><path d="M216.5,51c-18.2,0-33.1,14.3-34,32.3h67.9C249.6,65.3,234.8,51,216.5,51" class="st1"/><path d="M216.5,119.1c18.2,0,33.1-14.3,34-32.3h-67.9C183.4,104.7,198.3,119.1,216.5,119.1" class="st0"/><path d="M111.1,51v34c0,18.2,14.3,33.1,32.3,34V51H111.1z" class="st1"/><polygon points="146.8 51 146.8 119.1 179.1 119.1 179.1 85 179.1 51" class="st0"/></g><g><rect width="4.3" height="17" x="58.1" y="17" class="st2"/><path d="M83.8,25.5c0,5.5,4.2,8.8,9,8.8c1.9,0,3.3-0.5,3.9-0.6v-4.6C96.4,29.2,95,30,93.1,30c-2.8,0-4.7-2-4.7-4.5 c0-2.6,1.9-4.5,4.7-4.5c2,0,3.4,0.8,3.6,0.9v-4.6c-0.4-0.1-1.9-0.6-3.9-0.6C87.6,16.7,83.8,20.4,83.8,25.5z" class="st2"/><path d="M39.4,25.5c0,5.5,4.2,8.8,9,8.8c1.9,0,3.3-0.5,3.9-0.6v-4.6C52,29.2,50.7,30,48.7,30c-2.8,0-4.7-2-4.7-4.5 c0-2.6,1.9-4.5,4.7-4.5c2,0,3.4,0.8,3.6,0.9v-4.6c-0.4-0.1-1.9-0.6-3.9-0.6C43.2,16.7,39.4,20.4,39.4,25.5z" class="st2"/><path d="M110,16.7c-5.2,0-8.9,3.9-8.9,8.8c0,4.9,3.7,8.8,8.9,8.8c5.2,0,8.9-3.9,8.9-8.8 C118.9,20.6,115.2,16.7,110,16.7z M110,30c-2.5,0-4.4-2-4.4-4.5c0-2.5,1.9-4.5,4.4-4.5c2.5,0,4.4,2,4.4,4.5 C114.4,28,112.5,30,110,30z" class="st2"/><path d="M75.6,23.7l-1.2-0.4c-0.7-0.2-1.9-0.6-1.9-1.6c0-0.8,0.9-1.4,2.6-1.4c1.5,0,3.3,0.5,3.3,0.5v-3.6 c-0.1,0-2.1-0.5-4.1-0.5c-3.9,0-6.3,2.1-6.3,5.3c0,2.8,2,4.2,4.3,5c0.3,0.1,0.7,0.2,0.9,0.3c1.1,0.3,1.9,0.8,1.9,1.7 c0,1-1,1.6-3.1,1.6c-1.9,0-3.6-0.5-4-0.6v3.9c0.2,0,2.3,0.5,4.6,0.5c3.3,0,7-1.4,7-5.7C79.6,26.5,78.4,24.6,75.6,23.7z" class="st2"/></g></svg>